Coordinates
version=1
nRows=8
nColumns=28
inDegrees=yes

Units are S.I. units (second, meters, Newtons, ...)
Angles are in degrees.

endheader
time	pelvis_tilt	pelvis_list	pelvis_rotation	pelvis_tx	pelvis_ty	pelvis_tz	hip_flexion_r	hip_adduction_r	hip_rotation_r	knee_angle_r	ankle_angle_r	subtalar_angle_r	mtp_angle_r	hip_flexion_l	hip_adduction_l	hip_rotation_l	knee_angle_l	socket_flexion	socket_adduction	socket_rotation	socket_tx	socket_ty	socket_tz	foot_flex	lumbar_extension	lumbar_bending	lumbar_rotation
      0.00000000	      0.13037679	    -10.06064558	    -12.96046554	     -0.85746969	      0.98850129	      0.33531298	    -23.32825043	      9.12896619	     14.66976351	     -9.37529205	      8.58132258	    -11.51448336	     15.60952103	     28.53957936	    -14.91165181	      2.49665569	     -4.03991719	      2.75920639	      0.50215773	      7.27529128	      0.03430924	      0.00338413	      0.02154773	      2.51241024	    -13.28151799	      6.90042512	     20.91672038
      0.00416667	      0.08003796	    -10.10409896	    -12.91270702	     -0.85227589	      0.98778055	      0.33473477	    -23.45654479	      9.11573535	     14.71406470	     -9.56900554	      8.55839710	    -11.50279795	     15.64745549	     28.43317311	    -14.87335327	      2.48242850	     -4.06329975	      2.77806033	      0.48084070	      7.27935155	      0.03490795	      0.00319712	      0.02121885	      2.44087931	    -13.16184239	      6.95724626	     20.88768323
      0.00833333	     -0.04161580	    -10.25593768	    -12.93218540	     -0.84691553	      0.98703383	      0.33399179	    -23.42237113	      9.20548918	     14.70676358	    -10.00701234	      8.40149638	    -11.46333413	     15.81823879	     28.03356197	    -14.80920446	      2.38869765	     -3.87885695	      2.64632169	      0.26836493	      7.41081878	      0.03307393	      0.00236636	      0.02314427	      1.99628375	    -13.04833781	      7.21254677	     20.75627672
      0.01250000	     -0.08934709	    -10.28732560	    -12.92195967	     -0.84131176	      0.98625966	      0.33336676	    -23.55880232	      9.14580045	     14.73208953	    -10.20538133	      8.35143974	    -11.44904135	     15.84839660	     27.92430807	    -14.78340784	      2.38973487	     -3.93269161	      2.69164559	      0.25669635	      7.41994439	      0.03389970	      0.00208020	      0.02255277	      1.92957293	    -12.91884289	      7.27081660	     20.73866407
      0.01666667	      0.64449468	     -9.87273015	    -13.26217017	     -0.83544027	      0.98686353	      0.33263571	    -23.81075785	      8.16644207	     13.13227702	    -11.32566065	      7.22619646	     -9.39200321	     23.57903383	     26.08233369	    -13.94109725	      1.14310566	     -3.49600718	      2.38080500	     -0.33300973	      7.74398624	      0.02991917	      0.00140231	      0.02710004	      1.53267554	    -13.63687310	      6.60908521	     21.11502262
      0.02083333	      0.57695665	     -9.90351372	    -13.19106462	     -0.82945131	      0.98603935	      0.33192585	    -23.94612266	      8.13289889	     13.18468957	    -11.51733675	      7.16878903	     -9.39097514	     23.58696804	     25.98751589	    -13.89117937	      1.15584009	     -3.54427261	      2.41806064	     -0.32291575	      7.77413612	      0.03069011	      0.00101298	      0.02646496	      1.44677714	    -13.46651654	      6.67289890	     21.09254272
      0.02500000	      0.31111574	     -9.99549774	    -13.23582625	     -0.82319287	      0.98510393	      0.33118008	    -23.75608219	      8.16566243	     13.09468371	    -11.96147041	      6.59736066	     -9.45824438	     23.67137880	     25.75645974	    -13.85355755	      1.03637231	     -3.39618106	      2.30416695	     -0.44574702	      7.94613056	      0.02929747	      0.00008347	      0.02752950	      0.86970709	    -13.12309193	      6.93017245	     20.83466393
      0.02916667	      0.25604437	    -10.01954250	    -13.16557686	     -0.81702082	      0.98428590	      0.33049610	    -23.88886145	      8.12081988	     13.16794224	    -12.19134073	      6.53232243	     -9.45126386	     23.68181203	     25.64553724	    -13.80144046	      1.07236376	     -3.46214538	      2.35771279	     -0.43318967	      8.00003944	      0.03015135	     -0.00044361	      0.02684362	      0.81290817	    -12.94805927	      6.97452538	     20.82279423
